{
  "accessors": [
    {
      "bufferView": 1,
      "componentType": 5126,
      "count": 642,
      "max": [
        5.892600059509277,
        3.509999990463257,
        4.131899833679199
      ],
      "min": [
        2.852599859237671,
        0.4700000286102295,
        1.0918999910354614
      ],
      "type": "VEC3"
    },
    {
      "bufferView": 1,
      "byteOffset": 7704,
      "componentType": 5126,
      "count": 642,
      "max": [
        1.0,
        1.0,
        1.0
      ],
      "min": [
        -1.0,
        -1.0,
        -1.0
      ],
      "type": "VEC3"
    },
    {
      "bufferView": 0,
      "componentType": 5125,
      "count": 3840,
      "type": "SCALAR"
    },
    {
      "bufferView": 1,
      "byteOffset": 15408,
      "componentType": 5126,
      "count": 1284,
      "max": [
        4.949399948120117,
        3.690000057220459,
        4.247099876403809
      ],
      "min": [
        0.25679993629455566,
        0.28999996185302734,
        0.028500080108642578
      ],
      "type": "VEC3"
    },
    {
      "bufferView": 1,
      "byteOffset": 30816,
      "componentType": 5126,
      "count": 1284,
      "max": [
        1.0,
        1.0,
        1.0
      ],
      "min": [
        -1.0,
        -1.0,
        -1.0
      ],
      "type": "VEC3"
    },
    {
      "bufferView": 0,
      "byteOffset": 15360,
      "componentType": 5125,
      "count": 7680,
      "type": "SCALAR"
    },
    {
      "bufferView": 1,
      "byteOffset": 46224,
      "componentType": 5126,
      "count": 1854,
      "max": [
        5.255788803100586,
        2.9145090579986572,
        3.2361998558044434
      ],
      "min": [
        1.0630512237548828,
        1.0393999814987183,
        1.05099356174469
      ],
      "type": "VEC3"
    },
    {
      "bufferView": 1,
      "byteOffset": 68472,
      "componentType": 5126,
      "count": 1854,
      "max": [
        1.0,
        1.0,
        1.0
      ],
      "min": [
        -1.0,
        -1.0,
        -1.0
      ],
      "type": "VEC3"
    },
    {
      "bufferView": 0,
      "byteOffset": 46080,
      "componentType": 5125,
      "count": 9408,
      "type": "SCALAR"
    },
    {
      "bufferView": 1,
      "byteOffset": 90720,
      "componentType": 5126,
      "count": 1284,
      "max": [
        2.017399787902832,
        2.9405999183654785,
        3.2361998558044434
      ],
      "min": [
        1.8640998601913452,
        1.9293999671936035,
        2.4865000247955322
      ],
      "type": "VEC3"
    },
    {
      "bufferView": 1,
      "byteOffset": 106128,
      "componentType": 5126,
      "count": 1284,
      "max": [
        1.0,
        1.0,
        1.0
      ],
      "min": [
        -1.0,
        -1.0,
        -1.0
      ],
      "type": "VEC3"
    },
    {
      "bufferView": 0,
      "byteOffset": 83712,
      "componentType": 5125,
      "count": 7680,
      "type": "SCALAR"
    },
    {
      "bufferView": 1,
      "byteOffset": 121536,
      "componentType": 5126,
      "count": 1284,
      "max": [
        2.017399787902832,
        2.050600051879883,
        2.6076998710632324
      ],
      "min": [
        1.0393998622894287,
        1.9293999671936035,
        1.8127000331878662
      ],
      "type": "VEC3"
    },
    {
      "bufferView": 1,
      "byteOffset": 136944,
      "componentType": 5126,
      "count": 1284,
      "max": [
        1.0,
        1.0,
        1.0
      ],
      "min": [
        -1.0,
        -1.0,
        -1.0
      ],
      "type": "VEC3"
    },
    {
      "bufferView": 0,
      "byteOffset": 114432,
      "componentType": 5125,
      "count": 7680,
      "type": "SCALAR"
    },
    {
      "bufferView": 1,
      "byteOffset": 152352,
      "componentType": 5126,
      "count": 1284,
      "max": [
        5.28849983215332,
        2.050600051879883,
        2.6076998710632324
      ],
      "min": [
        1.8961999416351318,
        1.9293999671936035,
        2.100100040435791
      ],
      "type": "VEC3"
    },
    {
      "bufferView": 1,
      "byteOffset": 167760,
      "componentType": 5126,
      "count": 1284,
      "max": [
        1.0,
        1.0,
        1.0
      ],
      "min": [
        -1.0,
        -1.0,
        -1.0
      ],
      "type": "VEC3"
    },
    {
      "bufferView": 0,
      "byteOffset": 145152,
      "componentType": 5125,
      "count": 7680,
      "type": "SCALAR"
    },
    {
      "bufferView": 1,
      "byteOffset": 183168,
      "componentType": 5126,
      "count": 1284,
      "max": [
        3.309999942779541,
        2.050600051879883,
        2.6076998710632324
      ],
      "min": [
        1.8961999416351318,
        1.9293999671936035,
        1.6678999662399292
      ],
      "type": "VEC3"
    },
    {
      "bufferView": 1,
      "byteOffset": 198576,
      "componentType": 5126,
      "count": 1284,
      "max": [
        1.0,
        1.0,
        1.0
      ],
      "min": [
        -1.0,
        -1.0,
        -1.0
      ],
      "type": "VEC3"
    },
    {
      "bufferView": 0,
      "byteOffset": 175872,
      "componentType": 5125,
      "count": 7680,
      "type": "SCALAR"
    },
    {
      "bufferView": 1,
      "byteOffset": 213984,
      "componentType": 5126,
      "count": 1284,
      "max": [
        4.433199882507324,
        2.050600051879883,
        2.672499895095825
      ],
      "min": [
        3.1887998580932617,
        1.9293999671936035,
        1.6678999662399292
      ],
      "type": "VEC3"
    },
    {
      "bufferView": 1,
      "byteOffset": 229392,
      "componentType": 5126,
      "count": 1284,
      "max": [
        1.0,
        1.0,
        1.0
      ],
      "min": [
        -1.0,
        -1.0,
        -1.0
      ],
      "type": "VEC3"
    },
    {
      "bufferView": 0,
      "byteOffset": 206592,
      "componentType": 5125,
      "count": 7680,
      "type": "SCALAR"
    },
    {
      "bufferView": 1,
      "byteOffset": 244800,
      "componentType": 5126,
      "count": 1284,
      "max": [
        3.3420000076293945,
        2.050600051879883,
        1.789099931716919
      ],
      "min": [
        3.1887998580932617,
        1.0393999814987183,
        1.0393999814987183
      ],
      "type": "VEC3"
    },
    {
      "bufferView": 1,
      "byteOffset": 260208,
      "componentType": 5126,
      "count": 1284,
      "max": [
        1.0,
        1.0,
        1.0
      ],
      "min": [
        -1.0,
        -1.0,
        -1.0
      ],
      "type": "VEC3"
    },
    {
      "bufferView": 0,
      "byteOffset": 237312,
      "componentType": 5125,
      "count": 7680,
      "type": "SCALAR"
    },
    {
      "bufferView": 1,
      "byteOffset": 275616,
      "componentType": 5126,
      "count": 1284,
      "max": [
        4.433199882507324,
        2.9405999183654785,
        2.672499895095825
      ],
      "min": [
        3.2207999229431152,
        1.9293999671936035,
        1.0393999814987183
      ],
      "type": "VEC3"
    },
    {
      "bufferView": 1,
      "byteOffset": 291024,
      "componentType": 5126,
      "count": 1284,
      "max": [
        1.0,
        1.0,
        1.0
      ],
      "min": [
        -1.0,
        -1.0,
        -1.0
      ],
      "type": "VEC3"
    },
    {
      "bufferView": 0,
      "byteOffset": 268032,
      "componentType": 5125,
      "count": 7680,
      "type": "SCALAR"
    },
    {
      "bufferView": 1,
      "byteOffset": 306432,
      "componentType": 5126,
      "count": 1284,
      "max": [
        4.381400108337402,
        3.9800000190734863,
        2.200000047683716
      ],
      "min": [
        2.1813998222351074,
        0.0,
        0.0
      ],
      "type": "VEC3"
    },
    {
      "bufferView": 1,
      "byteOffset": 321840,
      "componentType": 5126,
      "count": 1284,
      "max": [
        1.0,
        1.0,
        1.0
      ],
      "min": [
        -1.0,
        -1.0,
        -1.0
      ],
      "type": "VEC3"
    },
    {
      "bufferView": 0,
      "byteOffset": 298752,
      "componentType": 5125,
      "count": 7680,
      "type": "SCALAR"
    },
    {
      "bufferView": 1,
      "byteOffset": 337248,
      "componentType": 5126,
      "count": 1284,
      "max": [
        3.0246999263763428,
        3.9800000190734863,
        4.275599956512451
      ],
      "min": [
        0.824699878692627,
        0.0,
        2.0755999088287354
      ],
      "type": "VEC3"
    },
    {
      "bufferView": 1,
      "byteOffset": 352656,
      "componentType": 5126,
      "count": 1284,
      "max": [
        1.0,
        1.0,
        1.0
      ],
      "min": [
        -1.0,
        -1.0,
        -1.0
      ],
      "type": "VEC3"
    },
    {
      "bufferView": 0,
      "byteOffset": 329472,
      "componentType": 5125,
      "count": 7680,
      "type": "SCALAR"
    },
    {
      "bufferView": 1,
      "byteOffset": 368064,
      "componentType": 5126,
      "count": 1284,
      "max": [
        6.327899932861328,
        3.0900001525878906,
        3.260699987411499
      ],
      "min": [
        0.0,
        0.8899999856948853,
        0.7732999324798584
      ],
      "type": "VEC3"
    },
    {
      "bufferView": 1,
      "byteOffset": 383472,
      "componentType": 5126,
      "count": 1284,
      "max": [
        1.0,
        1.0,
        1.0
      ],
      "min": [
        -1.0,
        -1.0,
        -1.0
      ],
      "type": "VEC3"
    },
    {
      "bufferView": 0,
      "byteOffset": 360192,
      "componentType": 5125,
      "count": 7680,
      "type": "SCALAR"
    }
  ],
  "asset": {
    "extras": {
      "author": "Edumol (https://sketchfab.com/edumol)",
      "license": "CC-BY-4.0 (http://creativecommons.org/licenses/by/4.0/)",
      "source": "https://sketchfab.com/3d-models/ethanol-6348a279cdfd49eebbc0b9edbbfba186",
      "title": "Ethanol"
    },
    "generator": "Sketchfab-12.67.0",
    "version": "2.0"
  },
  "bufferViews": [
    {
      "buffer": 0,
      "byteLength": 390912,
      "name": "floatBufferViews",
      "target": 34963
    },
    {
      "buffer": 0,
      "byteLength": 398880,
      "byteOffset": 390912,
      "byteStride": 12,
      "name": "floatBufferViews",
      "target": 34962
    }
  ],
  "buffers": [
    {
      "byteLength": 789792,
      "uri": "scene.bin"
    }
  ],
  "materials": [
    {
      "doubleSided": true,
      "name": "k909090",
      "pbrMetallicRoughness": {
        "baseColorFactor": [
          0.18648417912592063,
          0.18648417912592063,
          0.18648417912592063,
          1.0
        ],
        "metallicFactor": 0.0,
        "roughnessFactor": 0.6
      }
    },
    {
      "doubleSided": true,
      "name": "kc0c0c0",
      "pbrMetallicRoughness": {
        "baseColorFactor": [
          0.754,
          0.754,
          0.754,
          1.0
        ],
        "metallicFactor": 0.0,
        "roughnessFactor": 0.6
      }
    },
    {
      "doubleSided": true,
      "name": "kff0d0d",
      "pbrMetallicRoughness": {
        "baseColorFactor": [
          1.0,
          0.055,
          0.055,
          1.0
        ],
        "metallicFactor": 0.0,
        "roughnessFactor": 0.6
      }
    },
    {
      "doubleSided": true,
      "name": "kffffff",
      "pbrMetallicRoughness": {
        "metallicFactor": 0.0,
        "roughnessFactor": 0.6
      }
    }
  ],
  "meshes": [
    {
      "name": "Object_0",
      "primitives": [
        {
          "attributes": {
            "NORMAL": 1,
            "POSITION": 0
          },
          "indices": 2,
          "material": 2,
          "mode": 4
        }
      ]
    },
    {
      "name": "Object_1",
      "primitives": [
        {
          "attributes": {
            "NORMAL": 4,
            "POSITION": 3
          },
          "indices": 5,
          "material": 0,
          "mode": 4
        }
      ]
    },
    {
      "name": "Object_2",
      "primitives": [
        {
          "attributes": {
            "NORMAL": 7,
            "POSITION": 6
          },
          "indices": 8,
          "material": 1,
          "mode": 4
        }
      ]
    },
    {
      "name": "Object_3",
      "primitives": [
        {
          "attributes": {
            "NORMAL": 10,
            "POSITION": 9
          },
          "indices": 11,
          "material": 1,
          "mode": 4
        }
      ]
    },
    {
      "name": "Object_4",
      "primitives": [
        {
          "attributes": {
            "NORMAL": 13,
            "POSITION": 12
          },
          "indices": 14,
          "material": 1,
          "mode": 4
        }
      ]
    },
    {
      "name": "Object_5",
      "primitives": [
        {
          "attributes": {
            "NORMAL": 16,
            "POSITION": 15
          },
          "indices": 17,
          "material": 1,
          "mode": 4
        }
      ]
    },
    {
      "name": "Object_6",
      "primitives": [
        {
          "attributes": {
            "NORMAL": 19,
            "POSITION": 18
          },
          "indices": 20,
          "material": 1,
          "mode": 4
        }
      ]
    },
    {
      "name": "Object_7",
      "primitives": [
        {
          "attributes": {
            "NORMAL": 22,
            "POSITION": 21
          },
          "indices": 23,
          "material": 1,
          "mode": 4
        }
      ]
    },
    {
      "name": "Object_8",
      "primitives": [
        {
          "attributes": {
            "NORMAL": 25,
            "POSITION": 24
          },
          "indices": 26,
          "material": 1,
          "mode": 4
        }
      ]
    },
    {
      "name": "Object_9",
      "primitives": [
        {
          "attributes": {
            "NORMAL": 28,
            "POSITION": 27
          },
          "indices": 29,
          "material": 1,
          "mode": 4
        }
      ]
    },
    {
      "name": "Object_10",
      "primitives": [
        {
          "attributes": {
            "NORMAL": 31,
            "POSITION": 30
          },
          "indices": 32,
          "material": 3,
          "mode": 4
        }
      ]
    },
    {
      "name": "Object_11",
      "primitives": [
        {
          "attributes": {
            "NORMAL": 34,
            "POSITION": 33
          },
          "indices": 35,
          "material": 3,
          "mode": 4
        }
      ]
    },
    {
      "name": "Object_12",
      "primitives": [
        {
          "attributes": {
            "NORMAL": 37,
            "POSITION": 36
          },
          "indices": 38,
          "material": 3,
          "mode": 4
        }
      ]
    }
  ],
  "nodes": [
    {
      "children": [
        1
      ],
      "matrix": [
        1.0,
        0.0,
        0.0,
        0.0,
        0.0,
        2.220446049250313e-16,
        -1.0,
        0.0,
        0.0,
        1.0,
        2.220446049250313e-16,
        0.0,
        0.0,
        0.0,
        0.0,
        1.0
      ],
      "name": "Sketchfab_model"
    },
    {
      "children": [
        2,
        3,
        4,
        5,
        6,
        7,
        8,
        9,
        10,
        11,
        12,
        13,
        14
      ],
      "matrix": [
        1.0,
        0.0,
        0.0,
        0.0,
        0.0,
        1.0,
        0.0,
        0.0,
        0.0,
        0.0,
        1.0,
        0.0,
        -3.2421998977661133,
        -1.9900000095367432,
        -2.2971999645233154,
        1.0
      ],
      "name": "ethanol.obj.cleaner.gles"
    },
    {
      "mesh": 0,
      "name": "Object_2"
    },
    {
      "mesh": 1,
      "name": "Object_3"
    },
    {
      "mesh": 2,
      "name": "Object_4"
    },
    {
      "mesh": 3,
      "name": "Object_5"
    },
    {
      "mesh": 4,
      "name": "Object_6"
    },
    {
      "mesh": 5,
      "name": "Object_7"
    },
    {
      "mesh": 6,
      "name": "Object_8"
    },
    {
      "mesh": 7,
      "name": "Object_9"
    },
    {
      "mesh": 8,
      "name": "Object_10"
    },
    {
      "mesh": 9,
      "name": "Object_11"
    },
    {
      "mesh": 10,
      "name": "Object_12"
    },
    {
      "mesh": 11,
      "name": "Object_13"
    },
    {
      "mesh": 12,
      "name": "Object_14"
    }
  ],
  "scene": 0,
  "scenes": [
    {
      "name": "Sketchfab_Scene",
      "nodes": [
        0
      ]
    }
  ]
}
